
<svg xmlns="http://www.w3.org/2000/svg" fill-rule="evenodd" stroke-linejoin="round" stroke-miterlimit="2" clip-rule="evenodd" viewBox="0 0 34 34">
  <defs/>
  <path fill="none" d="M-783-93.003H817v1200H-783z"/>
  <path fill="#f2f2f2" d="M20.575 20.951c-4.65 4.274-11.89 4.16-16.4-.346-4.62-4.623-4.62-12.13 0-16.753 4.63-4.623 12.14-4.623 16.76 0 4.5 4.505 4.62 11.748.34 16.392l11.9 11.893a.51.51 0 010 .707.504.504 0 01-.71 0l-11.89-11.893zM4.885 4.56c4.24-4.232 11.11-4.232 15.34 0 4.23 4.233 4.23 11.106 0 15.34-4.23 4.232-11.1 4.232-15.34 0-4.23-4.234-4.23-11.107 0-15.34z"/>
</svg>
